<svg xmlns="http://www.w3.org/2000/svg" viewBox="0 11.569999694824219 165.08999633789062 39.459999084472656" data-asc="1.0009765625"><g fill="#000000"><g fill="#000000" transform="translate(0, 0)"><path d="M0.61 48.14Q0 47.85 0 46.92Q0 46.00 1.49 42.96Q2.98 39.92 3.83 39.92Q4.32 39.92 5.35 40.59Q6.37 41.26 7.73 42.21Q9.08 43.16 10.67 44.09Q14.53 46.39 18.16 46.39Q19.97 46.39 20.75 45.65Q21.53 44.92 21.53 44.18Q21.53 43.43 20.70 42.49Q19.87 41.55 18.54 40.55Q17.21 39.55 15.60 38.44Q13.99 37.33 12.38 36.08Q10.77 34.84 9.45 33.59Q6.45 30.76 6.45 28.08Q6.45 26.17 7.46 24.63Q8.47 23.10 10.05 22.14Q11.62 21.19 13.62 20.56Q17.21 19.38 21.02 19.38Q22.07 19.38 22.58 19.70Q23.10 20.02 23.10 20.43Q23.10 20.85 22.73 21.69Q22.36 22.53 22.36 23.19Q22.36 23.85 23.25 24.88Q24.15 25.90 25.56 26.98Q26.98 28.05 28.69 29.27Q30.40 30.49 32.10 31.86Q33.81 33.23 35.23 34.64Q38.43 37.84 38.43 40.83Q38.43 43.82 36.88 45.83Q35.33 47.83 32.57 48.93Q29.81 50.02 26.51 50.52Q23.22 51.03 18.48 51.03Q13.75 51.03 8.04 50.04Q2.34 49.05 0.61 48.14M41.04 24.24Q37.84 20.43 33.12 18.57Q28.39 16.70 23.27 16.70Q13.87 16.70 5.15 20.24Q3.98 20.70 3.49 20.70Q2.51 20.70 2.51 19.78Q2.51 19.02 3.82 17.97Q5.13 16.92 7.58 15.81Q10.03 14.70 13.13 13.75Q20.21 11.57 28.32 11.57Q40.31 11.57 46.41 14.94Q46.75 15.14 46.72 16.10Q46.68 17.07 45.83 19.07Q44.97 21.07 43.76 22.78Q42.55 24.49 41.70 24.49Q41.48 24.24 41.04 24.24ZM56.30 13.89L67.48 13.82Q68.04 13.82 68.40 14.17Q68.75 14.53 68.75 15.33Q68.75 16.14 67.75 20.06Q66.75 23.97 65.50 27.73Q68.70 26.37 72.58 25.26Q76.46 24.15 79.57 24.15Q81.91 24.15 83.84 25.44Q85.99 26.88 85.99 29.81Q85.99 32.71 83.72 37.65Q81.45 42.58 81.45 43.95Q81.45 45.95 83.37 45.95Q87.18 45.95 91.99 43.48Q92.72 43.09 93.19 43.09Q94.19 43.09 94.19 43.98Q94.19 44.87 93.08 45.57Q91.97 46.26 90.28 47.06Q88.60 47.85 86.06 48.80Q80.13 51.03 73.39 51.03Q66.65 51.03 66.65 47.71Q66.65 45.56 69.10 40.03Q71.56 34.50 71.56 32.57Q71.56 30.25 68.16 30.25Q66.28 30.25 64.45 30.83Q60.42 42.65 58.67 49.37Q58.54 49.83 58.12 50.05Q57.69 50.27 57.37 50.27L44.80 50.54Q44.53 50.54 44.20 50.21Q43.87 49.88 43.87 49.39Q43.87 48.90 45.45 44.48Q47.02 40.06 48.91 34.89Q50.81 29.71 52.38 24.12Q53.96 18.53 53.96 15.80L53.93 15.11Q53.93 13.89 56.30 13.89ZM95.58 48.41Q90.99 45.65 90.99 40.04Q90.99 37.11 92.20 34.53Q93.41 31.96 95.52 30.08Q97.63 28.20 100.44 26.86Q106.05 24.15 113.31 24.15Q127.56 24.15 128.71 33.18Q130.42 33.74 132.24 33.74Q134.06 33.74 135.28 33.47Q136.50 33.20 137.59 32.67Q138.67 32.13 139.14 32.13Q140.06 32.13 140.06 33.03Q140.06 33.94 138.62 34.91Q135.91 36.77 131.45 36.77Q129.76 36.77 128.71 36.60Q127.93 42.75 122.36 46.83Q119.70 48.78 115.83 49.90Q111.96 51.03 107.82 51.03Q103.69 51.03 100.73 50.38Q97.78 49.73 95.58 48.41M104.44 42.19Q104.44 46.70 107.74 46.70Q109.84 46.70 111.66 44.41Q113.48 42.11 114.49 38.72Q115.50 35.33 115.50 31.80Q115.50 28.27 113.04 28.27Q110.89 28.27 108.87 30.30Q106.86 32.32 105.65 35.56Q104.44 38.79 104.44 42.19ZM155.40 25.20L161.82 24.37Q163.62 24.37 163.62 25.78Q163.62 27.20 161.91 27.55Q160.21 27.91 154.20 28.49Q153.37 30.66 151.71 34.52Q148.32 42.43 148.32 44.02Q148.32 45.75 150.46 45.75Q157.40 45.75 162.92 43.43Q163.72 43.09 164.18 43.09Q165.09 43.09 165.09 43.90Q165.09 44.70 163.92 45.48Q160.33 47.85 153.10 49.44Q145.87 51.03 139.77 51.03Q136.30 51.03 134.47 49.94Q132.64 48.85 132.64 46.95Q132.64 45.02 135.18 39.75Q138.04 33.84 139.28 29.37Q137.77 29.44 137.18 29.44Q135.74 29.44 135.74 28.27Q135.74 27.42 136.21 27.12Q136.67 26.83 137.17 26.71Q137.67 26.59 138.02 26.55Q138.38 26.51 139.01 26.46Q139.65 26.42 139.94 26.39Q140.26 24.54 140.26 22.90L140.23 21.97Q140.23 20.87 143.02 20.48Q143.95 20.36 148.85 19.26Q153.76 18.16 154.86 18.16Q156.62 18.16 156.62 19.38Q156.62 21.48 155.40 25.20Z"/></g></g></svg>