<svg width="1540" height="2714" viewBox="0 0 1540 2714" fill="none" xmlns="http://www.w3.org/2000/svg">
<path d="M1010 670.5L905.5 829H987L1070.5 698.5C1072.29 695.379 1073.27 694.357 1075 694.5H1105.5C1117.47 694.492 1124.25 693.931 1136.5 691.5C1152.3 688.57 1161.06 685.757 1176.5 678.5C1184.79 672.975 1194.13 665.777 1197.5 658C1201.1 644.384 1199.93 639.051 1196.5 630.5C1193.89 623.882 1190.03 620.274 1179.5 614C1170.25 610.859 1165.11 611.036 1156 614.5L1143.5 621.5C1137.25 624.979 1133.69 626.627 1127 628C1123.57 628.297 1121.06 628.232 1116 628C1112.56 627.574 1112.94 626.351 1114 624.5L1241.5 423L1195.5 379.5L1058.5 582.5C1057.52 584.387 1056.97 585.25 1056 584.5C1052.55 579.805 1050.57 574.728 1047 563C1045.07 556.274 1045 549.225 1046 533C1046.73 522.56 1048.12 516.561 1053 505.5C1054.36 500.841 1054.18 497.575 1053.5 491.5C1051.39 485.212 1049.65 482.068 1045 477.5C1040.19 472.544 1036.41 470.594 1028.5 468C1018.46 467.77 1014.04 468.823 1007.5 472C998.002 477.434 994.711 482.033 990.5 491.5C977.096 549.413 983.863 585.111 1012 653.5C1014.65 659.626 1014.89 663.247 1010 670.5Z" fill="#904424" stroke="#904424"/>
<path d="M1439.5 6.49976C1475.11 -3.21516 1486.24 5.06993 1491.5 42.4998C1517.01 143.91 1522.02 178.791 1522.5 206.5C1519.5 242 1518.84 264.314 1497 303C1475.16 341.686 1457.83 361.309 1410.5 384C1374.81 400.911 1342.03 406.909 1268.5 413.5H1266C1254.44 414.602 1247.75 418.565 1235.5 431C1207.31 415.534 1200.13 404.749 1193.5 384C1193.27 359.864 1188.76 345.529 1175.5 319C1155.76 262.752 1153.87 230.668 1166 172.5C1190.74 108.25 1215.17 80.277 1280.5 47C1304.27 36.0637 1349.05 25.9268 1439.5 6.49976Z" fill="#FE6517" stroke="#FE6517"/>
<circle cx="1349" cy="214" r="71" fill="#D9D9D9"/>
<path d="M528.5 668.738L633 827.238H551.5L468 696.737C466.215 693.616 465.227 692.594 463.5 692.737H433C421.027 692.729 414.251 692.168 402 689.737C386.202 686.808 377.442 683.994 362 676.737C353.71 671.212 344.369 664.014 341 656.237C337.398 642.622 338.572 637.289 342 628.737C344.613 622.119 348.467 618.511 359 612.237C368.25 609.096 373.394 609.274 382.5 612.737L395 619.737C401.245 623.216 404.811 624.864 411.5 626.237C414.926 626.535 417.441 626.469 422.5 626.237C425.936 625.812 425.564 624.588 424.5 622.737L297 421.237L343 377.737L480 580.737C480.98 582.624 481.529 583.487 482.5 582.737C485.953 578.043 487.93 572.966 491.5 561.237C493.427 554.512 493.498 547.462 492.5 531.237C491.77 520.797 490.378 514.798 485.5 503.737C484.137 499.079 484.317 495.813 485 489.737C487.105 483.45 488.849 480.305 493.5 475.737C498.307 470.781 502.088 468.831 510 466.238C520.041 466.008 524.457 467.06 531 470.238C540.498 475.672 543.789 480.27 548 489.738C561.404 547.65 554.637 583.348 526.5 651.738C523.845 657.864 523.606 661.485 528.5 668.738Z" fill="#904424" stroke="#904424"/>
<path d="M99 4.73706C63.3855 -4.97785 52.2613 3.30724 47 40.7371C21.4893 142.148 16.4802 177.029 16 204.737C19 240.237 19.6566 262.551 41.5 301.237C63.3434 339.923 80.6684 359.547 128 382.237C163.688 399.149 196.474 405.146 270 411.737H272.5C284.061 412.839 290.747 416.802 303 429.237C331.191 413.771 338.37 402.986 345 382.237C345.232 358.101 349.738 343.766 363 317.237C382.741 260.989 384.632 228.906 372.5 170.737C347.756 106.487 323.329 78.5143 258 45.2373C234.234 34.301 189.449 24.1641 99 4.73706Z" fill="#FE6517" stroke="#FE6517"/>
<circle cx="71" cy="71" r="71" transform="matrix(-1 0 0 1 260.5 141.237)" fill="#FDFAEB"/>
<ellipse cx="770" cy="1920" rx="770" ry="750" fill="#D9CAB5"/>
<rect x="520" y="914" width="501" height="326" fill="#D9CAB5"/>
<rect x="458" y="827" width="625" height="101" fill="#FDF9ED"/>
<circle cx="458.5" cy="877.5" r="50.5" fill="#FDF9ED"/>
<circle cx="1083.5" cy="877.5" r="50.5" fill="#FDF9ED"/>
<path d="M520.5 1174.5C521.3 1207.3 498.5 1220.5 487 1223H548L544.5 1174.5H520.5Z" fill="#D9CAB5" stroke="#D9CAB5"/>
<path d="M1020.5 1175C1019.7 1207.8 1042.5 1221 1054 1223.5H993L996.5 1175H1020.5Z" fill="#D9CAB5" stroke="#D9CAB5"/>
<rect x="520" y="928" width="501" height="40" fill="#CABB9E"/>
<ellipse cx="150.775" cy="185.122" rx="150.775" ry="185.122" transform="matrix(-0.972114 0.23451 0.23451 0.972114 509.142 1316)" fill="#FDF9ED"/>
<ellipse cx="136.5" cy="176" rx="136.5" ry="176" transform="matrix(-1 0 0 1 526.467 1357.07)" fill="#FDF9ED"/>
<ellipse cx="118.07" cy="147.657" rx="118.07" ry="147.657" transform="matrix(-0.973814 0.227345 0.227345 0.973814 459.705 1393.07)" fill="#E2D3C0"/>
<ellipse cx="1146.48" cy="1531.24" rx="150.775" ry="185.122" transform="rotate(13.5627 1146.48 1531.24)" fill="#FDF9ED"/>
<ellipse cx="1162.5" cy="1533" rx="136.5" ry="176" fill="#FDF9ED"/>
<ellipse cx="1174.17" cy="1563.63" rx="118.07" ry="147.657" transform="rotate(13.1408 1174.17 1563.63)" fill="#E2D3C0"/>
<ellipse cx="196.816" cy="137.394" rx="196.816" ry="137.394" transform="matrix(-0.984691 0.174308 0.174308 0.984691 1332.61 1729)" fill="#FDF9ED"/>
<path d="M581.555 1933.9C568.329 2008.62 470.838 2053.84 363.803 2034.89C256.769 2015.94 180.722 1940.01 193.949 1865.29C207.176 1790.57 304.667 1745.36 411.701 1764.31C518.736 1783.25 594.782 1859.19 581.555 1933.9Z" fill="#FDF9ED"/>
<ellipse cx="711.517" cy="2667.49" rx="32.5258" ry="35.188" transform="rotate(-28.8419 711.517 2667.49)" fill="#FDF9ED"/>
<ellipse cx="31.1993" cy="35.188" rx="31.1993" ry="35.188" transform="matrix(-0.875954 -0.482394 -0.482394 0.875954 882.752 2652.18)" fill="#FDF9ED"/>
<ellipse cx="770.5" cy="1863.5" rx="408.5" ry="470.5" fill="#FDF9ED"/>
<path d="M851 2479.5C847.8 2525.5 821.667 2619 809 2660L860 2691C865.667 2686.83 879.9 2672.9 891.5 2650.5C929.667 2555.17 1014.8 2363.2 1050 2358L1014 2417C1010.67 2424 1009.2 2439 1030 2443C1050.8 2447 1076 2429.33 1086 2420C1093.67 2413.67 1105.8 2396 1093 2376C1093 2376 1075 2342.5 1077 2338.5C1079 2334.5 1100 2323 1108.5 2322.5C1117 2322 1115.3 2329.07 1122.3 2329.57C1129.3 2330.07 1161 2303 1167 2295.5C1173 2288 1168.5 2284 1171 2277.5C1173.5 2271 1188 2254 1188 2254C1206.96 2231.95 1245.63 2195.69 1272.5 2150.5C1293.7 2114.85 1305.75 2072.5 1307.5 2035C1309.33 2019.5 1304.2 1993.7 1269 2014.5C1233.8 2035.3 1234.67 2017.5 1239.5 2006L1072.5 2031.5L776 2182V2386.5C782 2386.1 800.5 2359.67 809 2346.5C815.333 2335 831.7 2318.9 846.5 2346.5C861.3 2374.1 855.667 2446.67 851 2479.5Z" fill="#FDF9ED" stroke="#FDF9ED"/>
<path d="M700.821 2479.5C704.021 2525.5 730.155 2619 742.821 2660L691.821 2691C686.155 2686.83 671.921 2672.9 660.321 2650.5C622.155 2555.17 537.021 2363.2 501.821 2358L537.821 2417C541.155 2424 542.621 2439 521.821 2443C501.021 2447 475.821 2429.33 465.821 2420C458.155 2413.67 446.021 2396 458.821 2376C458.821 2376 476.821 2342.5 474.821 2338.5C472.821 2334.5 451.821 2323 443.321 2322.5C434.821 2322 436.52 2329.07 429.52 2329.57C422.52 2330.07 390.821 2303 384.821 2295.5C378.821 2288 383.321 2284 380.821 2277.5C378.321 2271 363.821 2254 363.821 2254C344.859 2231.95 306.194 2195.69 279.321 2150.5C258.121 2114.85 246.073 2072.5 244.321 2035C242.488 2019.5 247.621 1993.7 282.821 2014.5C318.021 2035.3 317.155 2017.5 312.321 2006L479.321 2031.5L775.821 2182V2386.5C769.821 2386.1 751.321 2359.67 742.821 2346.5C736.488 2335 720.121 2318.9 705.321 2346.5C690.521 2374.1 696.155 2446.67 700.821 2479.5Z" fill="#FDF9ED" stroke="#FDF9ED"/>
<path d="M1134.5 1651C1175.7 1735.4 1226.17 1763 1244.5 1766L1134.5 1764C1117.33 1691.17 1093.3 1566.6 1134.5 1651Z" fill="#FDF9ED" stroke="#FDF9ED"/>
<path d="M411.18 1645.44C374.756 1732.01 325.909 1762.39 307.772 1766.4L417.488 1758.27C430.563 1684.59 447.605 1558.87 411.18 1645.44Z" fill="#FDF9ED" stroke="#FDF9ED"/>
<path d="M754 2554.02C760 2572.02 771.167 2575.85 776 2575.52C777 2584.18 778.4 2601.32 776 2600.52C773.6 2599.72 768.333 2602.52 766 2604.02C755.2 2606.42 749.167 2600.68 747.5 2597.52C742.3 2590.32 735.667 2566.85 733 2556.02C730.6 2548.82 730 2538.02 730 2533.52C733.2 2513.12 742 2523.02 746 2530.52L754 2554.02Z" fill="#FDF9ED" stroke="#FDF9ED"/>
<path d="M798.5 2554C792.5 2572 781.333 2575.83 776.5 2575.5C775.5 2584.17 774.1 2601.3 776.5 2600.5C778.9 2599.7 784.167 2602.5 786.5 2604C797.3 2606.4 803.333 2600.67 805 2597.5C810.2 2590.3 816.833 2566.83 819.5 2556C821.9 2548.8 822.5 2538 822.5 2533.5C819.3 2513.1 810.5 2523 806.5 2530.5L798.5 2554Z" fill="#FDF9ED" stroke="#FDF9ED"/>
<ellipse cx="54.3954" cy="116.323" rx="54.3954" ry="116.323" transform="matrix(-0.778368 0.627808 0.627808 0.778368 384.679 2028)" fill="black"/>
<ellipse cx="1126.2" cy="2153.41" rx="54.3954" ry="116.323" transform="rotate(38.8886 1126.2 2153.41)" fill="black"/>
<circle cx="1349" cy="214" r="71" fill="#FDFAEB"/>
</svg>
